<?xml version="1.0" encoding="UTF-8"?><svg id="a" xmlns="http://www.w3.org/2000/svg" viewBox="0 0 1280 1024"><path d="M107,766h210.6s-76.6-63-109.6-128c0,0-49,85-101,128Z"/><path d="M535.52,770h118.8L395.12,246s4-28-58,123c0,0-6,8,7,28s146,294,146,294l32,64s4.8,13,13.4,15Z"/><rect x="722" y="248" width="118" height="518" rx="6.9" ry="6.9"/><path d="M1011,414.66v173.08s-20.6-46-99.8-86.54c0,0,76.8-46.54,99.8-86.54Z"/><path d="M969.1,766h133.9v-161.4s-47.8,85.4-133.9,161.4Z"/><path d="M971.56,248h127.44l.2,155s-19.28-49-127.64-155Z"/></svg>